# xmcd
#
# Track frame offsets:
#	150
#	28623
#	42396
#	57519
#	88017
#	109290
#	143388
#	157986
#
# Disc length: 2355 seconds
#
# Revision: 0
# Processed by: cddbd v1.5.2PL0 Copyright (c) Steve Scherf et al.
# Submitted via: EZCDAudioConverter 1.0.4.1
#
DISCID=63093108
DTITLE=Gillian Welch - Music From The Revelator Collection
DYEAR=2006
DGENRE=country
TTITLE0=April The 14th (Live)
TTITLE1=Wichita (Live)
TTITLE2=Red Clay Halo (Live)
TTITLE3=Billy (Live)
TTITLE4=Pocahontas (Live)
TTITLE5=Revelator (Live)
TTITLE6=I'm On My Way Back To The Old Home (Live)
TTITLE7=White Freightliner Blues (Live)
EXTD=
EXTT0=
EXTT1=
EXTT2=
EXTT3=
EXTT4=
EXTT5=
EXTT6=
EXTT7=
PLAYORDER=
